HIERARCHY
ROOT Hips
{
  OFFSET 5.72205e-005 65.662 3.42586
  CHANNELS 6 Xposition Yposition Zposition Zrotation Xrotation Yrotation
  JOINT Chest
  {
    OFFSET 0 8.7983 -4.7612
    CHANNELS 6 Xposition Yposition Zposition Zrotation Xrotation Yrotation
    JOINT Chest2
    {
      OFFSET 0 8.0291 0.4195
      CHANNELS 6 Xposition Yposition Zposition Zrotation Xrotation Yrotation
      JOINT Chest3
      {
        OFFSET 0 9.9351 -2.2114
        CHANNELS 6 Xposition Yposition Zposition Zrotation Xrotation Yrotation
        JOINT Neck
        {
          OFFSET 0 22.3885 -0.4656
          CHANNELS 6 Xposition Yposition Zposition Zrotation Xrotation Yrotation
          JOINT Head
          {
            OFFSET -0.0001 12.643 3.4389
            CHANNELS 6 Xposition Yposition Zposition Zrotation Xrotation Yrotation
            End Site
            {
              OFFSET 0.0001 17.6655 0.5274
            }
          }
        }
        JOINT LeftCollar
        {
          OFFSET 2.2603 21.606 7.4023
          CHANNELS 6 Xposition Yposition Zposition Zrotation Xrotation Yrotation
          JOINT LeftShoulder
          {
            OFFSET 13.5163 -1.1332 -5.0146
            CHANNELS 6 Xposition Yposition Zposition Zrotation Xrotation Yrotation
            JOINT LeftElbow
            {
              OFFSET -0.0995 -28.05 -0.2431
              CHANNELS 6 Xposition Yposition Zposition Zrotation Xrotation Yrotation
              JOINT LeftWrist
              {
                OFFSET 0.0679 -23.3996 -0.1402
                CHANNELS 6 Xposition Yposition Zposition Zrotation Xrotation Yrotation
                JOINT LeftFinger1
                {
                  OFFSET 0.7932 -9.069 2.5189
                  CHANNELS 6 Xposition Yposition Zposition Zrotation Xrotation Yrotation
                  JOINT LeftFinger11
                  {
                    OFFSET -0.8272 -3.3923 0.5977
                    CHANNELS 6 Xposition Yposition Zposition Zrotation Xrotation Yrotation
                    JOINT LeftFinger12
                    {
                      OFFSET -0.5649 -2.3158 0.4082
                      CHANNELS 6 Xposition Yposition Zposition Zrotation Xrotation Yrotation
                      End Site
                      {
                        OFFSET -0.4919 -1.6479 0.2673
                      }
                    }
                  }
                }
                JOINT LeftFinger2
                {
                  OFFSET 0.9159 -9.2044 0.2193
                  CHANNELS 6 Xposition Yposition Zposition Zrotation Xrotation Yrotation
                  JOINT LeftFinger21
                  {
                    OFFSET 0.0117 -4.1944 -0.0248
                    CHANNELS 6 Xposition Yposition Zposition Zrotation Xrotation Yrotation
                    JOINT LeftFinger22
                    {
                      OFFSET 0.0071 -2.3249 -0.0142
                      CHANNELS 6 Xposition Yposition Zposition Zrotation Xrotation Yrotation
                      End Site
                      {
                        OFFSET -0.1475 -2.0882 0.0028
                      }
                    }
                  }
                }
                JOINT LeftFinger3
                {
                  OFFSET 0.6113 -8.7231 -2.0637
                  CHANNELS 6 Xposition Yposition Zposition Zrotation Xrotation Yrotation
                  JOINT LeftFinger31
                  {
                    OFFSET -0.1927 -3.8059 -0.2383
                    CHANNELS 6 Xposition Yposition Zposition Zrotation Xrotation Yrotation
                    JOINT LeftFinger32
                    {
                      OFFSET -0.1091 -2.1688 -0.1362
                      CHANNELS 6 Xposition Yposition Zposition Zrotation Xrotation Yrotation
                      End Site
                      {
                        OFFSET -0.2358 -1.9176 -0.0906
                      }
                    }
                  }
                }
                JOINT LeftFinger4
                {
                  OFFSET -0.6151 -8.0947 -3.5641
                  CHANNELS 6 Xposition Yposition Zposition Zrotation Xrotation Yrotation
                  JOINT LeftFinger41
                  {
                    OFFSET -0.4882 -2.341 -0.6462
                    CHANNELS 6 Xposition Yposition Zposition Zrotation Xrotation Yrotation
                    JOINT LeftFinger42
                    {
                      OFFSET -0.3575 -1.7167 -0.4742
                      CHANNELS 6 Xposition Yposition Zposition Zrotation Xrotation Yrotation
                      End Site
                      {
                        OFFSET -0.4187 -1.5237 -0.3496
                      }
                    }
                  }
                }
                JOINT LeftFinger0
                {
                  OFFSET -1.42 -1.8761 1.4223
                  CHANNELS 6 Xposition Yposition Zposition Zrotation Xrotation Yrotation
                  JOINT LeftFinger01
                  {
                    OFFSET -1.1471 -3.4929 2.6334
                    CHANNELS 6 Xposition Yposition Zposition Zrotation Xrotation Yrotation
                    JOINT LeftFinger02
                    {
                      OFFSET -0.823 -2.3 1.6571
                      CHANNELS 6 Xposition Yposition Zposition Zrotation Xrotation Yrotation
                      End Site
                      {
                        OFFSET -0.5822 -1.6914 1.1582
                      }
                    }
                  }
                }
              }
            }
          }
        }
        JOINT RightCollar
        {
          OFFSET -2.2603 21.606 7.4023
          CHANNELS 6 Xposition Yposition Zposition Zrotation Xrotation Yrotation
          JOINT RightShoulder
          {
            OFFSET -13.5187 -1.1334 -5.0155
            CHANNELS 6 Xposition Yposition Zposition Zrotation Xrotation Yrotation
            JOINT RightElbow
            {
              OFFSET 0.0994 -28.0499 -0.2431
              CHANNELS 6 Xposition Yposition Zposition Zrotation Xrotation Yrotation
              JOINT RightWrist
              {
                OFFSET -0.0679 -23.3996 -0.1402
                CHANNELS 6 Xposition Yposition Zposition Zrotation Xrotation Yrotation
                JOINT RightFinger1
                {
                  OFFSET -0.7932 -9.0691 2.5189
                  CHANNELS 6 Xposition Yposition Zposition Zrotation Xrotation Yrotation
                  JOINT RightFinger11
                  {
                    OFFSET 0.8272 -3.3923 0.5977
                    CHANNELS 6 Xposition Yposition Zposition Zrotation Xrotation Yrotation
                    JOINT RightFinger12
                    {
                      OFFSET 0.565 -2.3158 0.4082
                      CHANNELS 6 Xposition Yposition Zposition Zrotation Xrotation Yrotation
                      End Site
                      {
                        OFFSET 0.4919 -1.6479 0.2673
                      }
                    }
                  }
                }
                JOINT RightFinger2
                {
                  OFFSET -0.916 -9.2044 0.2193
                  CHANNELS 6 Xposition Yposition Zposition Zrotation Xrotation Yrotation
                  JOINT RightFinger21
                  {
                    OFFSET -0.0117 -4.1944 -0.0248
                    CHANNELS 6 Xposition Yposition Zposition Zrotation Xrotation Yrotation
                    JOINT RightFinger22
                    {
                      OFFSET -0.0071 -2.3249 -0.0142
                      CHANNELS 6 Xposition Yposition Zposition Zrotation Xrotation Yrotation
                      End Site
                      {
                        OFFSET 0.1475 -2.0882 0.0028
                      }
                    }
                  }
                }
                JOINT RightFinger3
                {
                  OFFSET -0.6113 -8.7231 -2.0637
                  CHANNELS 6 Xposition Yposition Zposition Zrotation Xrotation Yrotation
                  JOINT RightFinger31
                  {
                    OFFSET 0.1927 -3.8059 -0.2383
                    CHANNELS 6 Xposition Yposition Zposition Zrotation Xrotation Yrotation
                    JOINT RightFinger32
                    {
                      OFFSET 0.1091 -2.1688 -0.1362
                      CHANNELS 6 Xposition Yposition Zposition Zrotation Xrotation Yrotation
                      End Site
                      {
                        OFFSET 0.2358 -1.9176 -0.0906
                      }
                    }
                  }
                }
                JOINT RightFinger4
                {
                  OFFSET 0.6151 -8.0947 -3.564
                  CHANNELS 6 Xposition Yposition Zposition Zrotation Xrotation Yrotation
                  JOINT RightFinger41
                  {
                    OFFSET 0.4882 -2.341 -0.6462
                    CHANNELS 6 Xposition Yposition Zposition Zrotation Xrotation Yrotation
                    JOINT RightFinger42
                    {
                      OFFSET 0.3574 -1.7166 -0.4742
                      CHANNELS 6 Xposition Yposition Zposition Zrotation Xrotation Yrotation
                      End Site
                      {
                        OFFSET 0.4187 -1.5237 -0.3496
                      }
                    }
                  }
                }
                JOINT RightFinger0
                {
                  OFFSET 1.4199 -1.8761 1.4221
                  CHANNELS 6 Xposition Yposition Zposition Zrotation Xrotation Yrotation
                  JOINT RightFinger01
                  {
                    OFFSET 1.1472 -3.4929 2.6336
                    CHANNELS 6 Xposition Yposition Zposition Zrotation Xrotation Yrotation
                    JOINT RightFinger02
                    {
                      OFFSET 0.8229 -2.3 1.6571
                      CHANNELS 6 Xposition Yposition Zposition Zrotation Xrotation Yrotation
                      End Site
                      {
                        OFFSET 0.5822 -1.6914 1.1582
                      }
                    }
                  }
                }
              }
            }
          }
        }
      }
    }
  }
  JOINT RightHip
  {
    OFFSET -9.412 3.9771 -0.7758
    CHANNELS 6 Xposition Yposition Zposition Zrotation Xrotation Yrotation
    JOINT RightKnee
    {
      OFFSET -0.7531 -40.938 0
      CHANNELS 6 Xposition Yposition Zposition Zrotation Xrotation Yrotation
      JOINT RightAnkle
      {
        OFFSET 0 -40.1986 0
        CHANNELS 6 Xposition Yposition Zposition Zrotation Xrotation Yrotation
        JOINT RightToe
        {
          OFFSET 0 -4.4182 9.239
          CHANNELS 6 Xposition Yposition Zposition Zrotation Xrotation Yrotation
          End Site
          {
            OFFSET 0 0 6.1981
          }
        }
      }
    }
  }
  JOINT LeftHip
  {
    OFFSET 9.4119 3.9773 -0.7758
    CHANNELS 6 Xposition Yposition Zposition Zrotation Xrotation Yrotation
    JOINT LeftKnee
    {
      OFFSET 0.7532 -40.9383 0
      CHANNELS 6 Xposition Yposition Zposition Zrotation Xrotation Yrotation
      JOINT LeftAnkle
      {
        OFFSET 0 -40.1986 0
        CHANNELS 6 Xposition Yposition Zposition Zrotation Xrotation Yrotation
        JOINT LeftToe
        {
          OFFSET 0 -4.4182 9.239
          CHANNELS 6 Xposition Yposition Zposition Zrotation Xrotation Yrotation
          End Site
          {
            OFFSET 0 0 6.1981
          }
        }
      }
    }
  }
}
MOTION
Frames:	4
Frame Time:	0.0333333
5.72205e-005 65.662 3.42586 0 0 -0 0 8.7983 -4.7612 0 0 -0 0 8.0291 0.4195 0 0 -0 0 9.9351 -2.2114 0 0 -0 0 22.3885 -0.4656 0 0 -0 -0.0001 12.643 3.4389 0 0 -0 2.2603 21.606 7.4023 0 0 -12.5014 13.5163 -1.1332 -5.0146 88.1196 14.2451 10.6914 -0.0995 -28.05 -0.2431 -0.00160068 -0.00239207 0.000740045 0.0679 -23.3996 -0.1402 -8.4365e-005 7.00714e-005 -9.52055e-007 0.7932 -9.069 2.5189 9.93923e-017 -1.98785e-016 -1.59028e-015 -0.8272 -3.3923 0.5977 9.93923e-017 -5.96354e-016 -1.59028e-015 -0.5649 -2.3158 0.4082 -9.93923e-017 -5.96354e-016 -1.59028e-015 0.9159 -9.2044 0.2193 9.93923e-017 -1.98785e-016 -1.59028e-015 0.0117 -4.1944 -0.0248 -0.0128176 0.00232552 8.52707e-005 0.0071 -2.3249 -0.0142 9.93923e-017 5.96354e-016 -0 0.6113 -8.7231 -2.0637 9.93923e-017 -1.98785e-016 -1.59028e-015 -0.1927 -3.8059 -0.2383 -0.0160551 0.00299681 0.000857156 -0.1091 -2.1688 -0.1362 -2.48481e-016 0 3.18055e-015 -0.6151 -8.0947 -3.5641 9.93923e-017 -1.98785e-016 -1.59028e-015 -0.4882 -2.341 -0.6462 -0.0125865 0.0031206 0.00282719 -0.3575 -1.7167 -0.4742 0 1.98785e-016 -0 -1.42 -1.8761 1.4223 9.93923e-017 -1.98785e-016 -1.59028e-015 -1.1471 -3.4929 2.6334 9.93923e-017 -5.96354e-016 -1.59028e-015 -0.823 -2.3 1.6571 -9.93923e-017 -5.96354e-016 -1.59028e-015 -2.2603 21.606 7.4023 -0.865644 0.16582 7.03859 -13.5187 -1.1334 -5.0155 -88.0329 10.2057 -10.5567 0.0994 -28.0499 -0.2431 0.0015593 -0.00248883 -0.000788628 -0.0679 -23.3996 -0.1402 7.87605e-005 4.10553e-005 1.24965e-005 -0.7932 -9.0691 2.5189 -3.97569e-016 -7.95139e-016 3.18055e-015 0.8272 -3.3923 0.5977 -1.98785e-016 -3.97569e-016 3.18055e-015 0.565 -2.3158 0.4082 -1.98785e-016 0 3.18055e-015 -0.916 -9.2044 0.2193 -3.97569e-016 -7.95139e-016 3.18055e-015 -0.0117 -4.1944 -0.0248 0.0129473 0.00231697 -8.70038e-005 -0.0071 -2.3249 -0.0142 9.93923e-017 -7.95139e-016 1.59028e-015 -0.6113 -8.7231 -2.0637 -3.97569e-016 -7.95139e-016 3.18055e-015 0.1927 -3.8059 -0.2383 0.0163314 0.00303369 -0.000872333 0.1091 -2.1688 -0.1362 3.97569e-016 7.95139e-016 -3.18055e-015 0.6151 -8.0947 -3.564 -3.97569e-016 -7.95139e-016 3.18055e-015 0.4882 -2.341 -0.6462 0.0145763 0.00367772 -0.00326275 0.3574 -1.7166 -0.4742 9.93923e-017 -3.97569e-016 -0 1.4199 -1.8761 1.4221 -3.97569e-016 -7.95139e-016 3.18055e-015 1.1472 -3.4929 2.6336 -1.98785e-016 -3.97569e-016 3.18055e-015 0.8229 -2.3 1.6571 -1.98785e-016 0 3.18055e-015 -9.412 3.9771 -0.7758 3.42482 1.32465 -0.0626183 -0.7531 -40.938 0 0.000117508 0.717283 0.000978199 0 -40.1986 0 -3.4257 -2.04197 -0.0604716 8.88178e-016 -4.4182 9.239 6.47761e-025 0 -0 9.4119 3.9773 -0.7758 -3.42483 1.34017 0.0627307 0.7532 -40.9383 -2.22045e-016 -0.000193936 0.682302 -0.0013703 -8.88179e-016 -40.1986 0 3.42574 -2.02253 0.0595886 -8.88178e-016 -4.4182 9.239 -8.45714e-024 0 -7.40531e-025 
-4.8201 9.0037 25.7325 0 0 -1.48002e-009 8.88178e-016 8.7983 -4.7612 -0.0333365 8.00551 -0.102284 -8.88179e-016 8.0291 0.4195 -0.0528605 16.0111 -0.202829 0 9.9351 -2.2114 -0.0528606 16.0112 -0.20283 0 22.3885 -0.4656 0.102955 -17.8674 0.0356553 -0.0001 12.643 3.4389 1.30311 -19.144 0.335026 2.2603 21.606 7.4023 -2.3728 -0.0374885 -9.42892 13.5163 -1.1332 -5.0146 52.1144 -32.5608 40.4277 -0.0995 -28.05 -0.2431 -19.9379 -72.0013 -14.3754 0.0679 -23.3996 -0.1402 -43.4508 7.60802 1.62331 0.7932 -9.069 2.5189 9.54166e-015 -6.36111e-015 4.77083e-015 -0.8272 -3.3923 0.5977 1.27222e-014 1.59028e-015 1.59028e-015 -0.5649 -2.3158 0.4082 1.27222e-014 4.77083e-015 3.18055e-015 0.9159 -9.2044 0.2193 9.54166e-015 -6.36111e-015 4.77083e-015 0.0117 -4.1944 -0.0248 -0.0127719 0.00231606 8.71647e-005 0.0071 -2.3249 -0.0142 3.45888e-006 1.98865e-005 7.43517e-006 0.6113 -8.7231 -2.0637 9.54166e-015 -6.36111e-015 4.77083e-015 -0.1927 -3.8059 -0.2383 -0.0160678 0.00299598 0.000865349 -0.1091 -2.1688 -0.1362 -9.54166e-015 -4.77083e-015 -1.59028e-015 -0.6151 -8.0947 -3.5641 9.54166e-015 -6.36111e-015 4.77083e-015 -0.4882 -2.341 -0.6462 -0.012613 0.00314246 0.00283181 -0.3575 -1.7167 -0.4742 -6.36111e-015 6.36111e-015 -1.59028e-015 -1.42 -1.8761 1.4223 9.54166e-015 -6.36111e-015 4.77083e-015 -1.1471 -3.4929 2.6334 1.27222e-014 1.59028e-015 1.59028e-015 -0.823 -2.3 1.6571 1.27222e-014 4.77083e-015 3.18055e-015 -2.2603 21.606 7.4023 7.13352 -0.0289266 7.0335 -13.5187 -1.1334 -5.0155 -25.926 -25.9295 7.36183 0.0994 -28.0499 -0.2431 26.0442 -66.4754 18.6989 -0.0679 -23.3996 -0.1402 6.87366 1.25182 0.312677 -0.7932 -9.0691 2.5189 -5.36637e-006 -3.22539e-006 -8.42366e-007 0.8272 -3.3923 0.5977 -5.34273e-006 4.09741e-006 8.27009e-006 0.565 -2.3158 0.4082 -9.28265e-006 2.15454e-005 -1.02028e-005 -0.916 -9.2044 0.2193 -5.36637e-006 -3.22539e-006 -8.42366e-007 -0.0117 -4.1944 -0.0248 0.0129088 0.00231894 -9.42878e-005 -0.0071 -2.3249 -0.0142 -3.26634e-006 -2.84326e-006 1.03227e-006 -0.6113 -8.7231 -2.0637 -5.36637e-006 -3.22539e-006 -8.42366e-007 0.1927 -3.8059 -0.2383 0.0163143 0.00304704 -0.000870655 0.1091 -2.1688 -0.1362 -7.98872e-006 -3.44632e-006 -2.04721e-006 0.6151 -8.0947 -3.564 -5.36637e-006 -3.22539e-006 -8.42366e-007 0.4882 -2.341 -0.6462 0.0145929 0.00369084 -0.00327027 0.3574 -1.7166 -0.4742 -5.75453e-006 6.24641e-006 -5.25528e-006 1.4199 -1.8761 1.4221 -5.36637e-006 -3.22539e-006 -8.42366e-007 1.1472 -3.4929 2.6336 -5.34273e-006 4.09741e-006 8.27009e-006 0.8229 -2.3 1.6571 -9.28265e-006 2.15454e-005 -1.02028e-005 -9.412 3.9771 -0.7758 -49.6277 -9.47865 -76.2784 -0.7531 -40.938 3.55271e-015 -174.81 14.7508 124.97 0 -40.1986 0 12.5817 12.975 43.8936 1.77636e-015 -4.4182 9.239 -0 -2.68359e-015 -0 9.4119 3.9773 -0.7758 129.59 -58.0043 131.336 0.7532 -40.9383 -1.77636e-015 170.445 59.6827 -157.986 0 -40.1986 0 8.1285 -11.6353 2.19388 -3.55271e-015 -4.4182 9.239 8.42459e-007 -1.0363e-007 -2.63538e-008 
-4.8201 9.0037 25.7325 0 0 -1.48002e-009 8.88178e-016 8.7983 -4.7612 -0.0333365 8.00551 -0.102284 -8.88179e-016 8.0291 0.4195 -0.0528605 16.0111 -0.202829 0 9.9351 -2.2114 -0.0528606 16.0112 -0.20283 0 22.3885 -0.4656 0.465045 -17.7913 0.41147 -0.0001 12.643 3.4389 1.30311 -19.144 0.335026 2.2603 21.606 7.4023 -2.3728 -0.0374885 -9.42892 13.5163 -1.1332 -5.0146 52.1144 -32.5608 40.4277 -0.0995 -28.05 -0.2431 -19.9379 -72.0013 -14.3754 0.0679 -23.3996 -0.1402 -43.4508 7.60803 1.62333 0.7932 -9.069 2.5189 7.06995e-006 1.2843e-005 6.7039e-006 -0.8272 -3.3923 0.5977 1.78009e-006 4.13353e-007 -2.82327e-006 -0.5649 -2.3158 0.4082 4.41391e-032 -1.59028e-015 1.59028e-015 0.9159 -9.2044 0.2193 7.06995e-006 1.2843e-005 6.7039e-006 0.0117 -4.1944 -0.0248 -0.0128014 0.00231153 8.43842e-005 0.0071 -2.3249 -0.0142 6.29845e-006 2.02054e-007 -9.35374e-007 0.6113 -8.7231 -2.0637 7.06995e-006 1.2843e-005 6.7039e-006 -0.1927 -3.8059 -0.2383 -0.0160569 0.00299685 0.00086177 -0.1091 -2.1688 -0.1362 5.40829e-006 -2.77673e-006 4.76282e-007 -0.6151 -8.0947 -3.5641 7.06995e-006 1.2843e-005 6.7039e-006 -0.4882 -2.341 -0.6462 -0.0126084 0.00312529 0.0028337 -0.3575 -1.7167 -0.4742 -6.30639e-006 -6.14245e-006 1.03769e-005 -1.42 -1.8761 1.4223 7.06995e-006 1.2843e-005 6.7039e-006 -1.1471 -3.4929 2.6334 1.78009e-006 4.13353e-007 -2.82327e-006 -0.823 -2.3 1.6571 4.41391e-032 -1.59028e-015 1.59028e-015 -2.2603 21.606 7.4023 7.13352 -0.0289266 7.0335 -13.5187 -1.1334 -5.0155 -25.926 -25.9295 7.36184 0.0994 -28.0499 -0.2431 26.2762 -66.6427 18.9153 -0.0679 -23.3996 -0.1402 7.13547 1.30019 0.321635 -0.7932 -9.0691 2.5189 -3.18055e-015 -3.18055e-015 -6.36111e-015 0.8272 -3.3923 0.5977 1.57512e-006 4.25568e-006 2.53993e-006 0.565 -2.3158 0.4082 -6.36111e-015 6.36111e-015 -0 -0.916 -9.2044 0.2193 -3.18055e-015 -3.18055e-015 -6.36111e-015 -0.0117 -4.1944 -0.0248 0.0129518 0.00233054 -9.18655e-005 -0.0071 -2.3249 -0.0142 3.18055e-015 -9.54166e-015 -0 -0.6113 -8.7231 -2.0637 -3.18055e-015 -3.18055e-015 -6.36111e-015 0.1927 -3.8059 -0.2383 0.0163091 0.00303531 -0.000875578 0.1091 -2.1688 -0.1362 -5.20155e-007 1.98849e-006 6.71669e-007 0.6151 -8.0947 -3.564 -3.18055e-015 -3.18055e-015 -6.36111e-015 0.4882 -2.341 -0.6462 0.0145518 0.00366928 -0.00324574 0.3574 -1.7166 -0.4742 1.41959e-007 1.09063e-006 -1.56359e-006 1.4199 -1.8761 1.4221 -3.18055e-015 -3.18055e-015 -6.36111e-015 1.1472 -3.4929 2.6336 1.57512e-006 4.25568e-006 2.53993e-006 0.8229 -2.3 1.6571 -6.36111e-015 6.36111e-015 -0 -9.412 3.9771 -0.7758 -49.628 -9.47873 -76.2785 -0.7531 -40.938 -3.55271e-015 -174.81 14.7508 124.97 1.77636e-015 -40.1986 -3.55271e-015 12.5815 12.9752 43.8936 0 -4.4182 9.239 6.4605e-016 -6.4605e-015 -0 9.4119 3.9773 -0.7758 129.59 -58.0043 131.336 0.7532 -40.9383 -3.55271e-015 170.445 59.6827 -157.986 7.10543e-015 -40.1986 0 8.12851 -11.6353 2.19388 0 -4.4182 9.239 -3.57812e-015 -2.89764e-010 -6.36111e-015 
-4.8201 9.0037 25.7325 0 0 -9.25011e-010 0 8.7983 -4.7612 -0.0333365 8.00551 -0.102284 -8.88179e-016 8.0291 0.4195 -0.0528606 16.0111 -0.202829 8.88179e-016 9.9351 -2.2114 -0.0528606 16.0112 -0.20283 8.88179e-016 22.3885 -0.4656 0.826891 -17.7128 0.787073 -0.0001 12.643 3.4389 1.30311 -19.144 0.335026 2.2603 21.606 7.4023 -2.3728 -0.0374885 -9.42892 13.5163 -1.1332 -5.0146 52.1144 -32.5608 40.4277 -0.0995 -28.05 -0.2431 -19.9379 -72.0013 -14.3755 0.0679 -23.3996 -0.1402 -43.4508 7.60804 1.62334 0.7932 -9.069 2.5189 -1.52121e-006 -1.40219e-006 2.22279e-006 -0.8272 -3.3923 0.5977 -3.18055e-015 1.59028e-015 3.18055e-015 -0.5649 -2.3158 0.4082 -2.99688e-006 5.8966e-006 -4.11044e-006 0.9159 -9.2044 0.2193 -1.52121e-006 -1.40219e-006 2.22279e-006 0.0117 -4.1944 -0.0248 -0.0127977 0.0023262 8.31638e-005 0.0071 -2.3249 -0.0142 -9.54166e-015 1.90833e-014 -6.36111e-015 0.6113 -8.7231 -2.0637 -1.52121e-006 -1.40219e-006 2.22279e-006 -0.1927 -3.8059 -0.2383 -0.0160735 0.00298585 0.000847973 -0.1091 -2.1688 -0.1362 9.54166e-015 0 -0 -0.6151 -8.0947 -3.5641 -1.52121e-006 -1.40219e-006 2.22279e-006 -0.4882 -2.341 -0.6462 -0.012593 0.00312011 0.00281943 -0.3575 -1.7167 -0.4742 -9.54166e-015 -3.18055e-015 3.18055e-015 -1.42 -1.8761 1.4223 -1.52121e-006 -1.40219e-006 2.22279e-006 -1.1471 -3.4929 2.6334 -3.18055e-015 1.59028e-015 3.18055e-015 -0.823 -2.3 1.6571 -2.99688e-006 5.8966e-006 -4.11044e-006 -2.2603 21.606 7.4023 7.13352 -0.0289266 7.0335 -13.5187 -1.1334 -5.0155 -25.926 -25.9295 7.36185 0.0994 -28.0499 -0.2431 26.5117 -66.8097 19.1352 -0.0679 -23.3996 -0.1402 7.39752 1.34863 0.33032 -0.7932 -9.0691 2.5189 -3.80388e-006 1.04153e-005 -3.38228e-006 0.8272 -3.3923 0.5977 -4.16205e-006 -9.19953e-007 8.30425e-007 0.565 -2.3158 0.4082 -4.32278e-006 -6.72763e-007 2.39065e-006 -0.916 -9.2044 0.2193 -3.80388e-006 1.04153e-005 -3.38228e-006 -0.0117 -4.1944 -0.0248 0.0129194 0.00231024 -8.66432e-005 -0.0071 -2.3249 -0.0142 6.81309e-007 -1.08791e-005 2.86666e-006 -0.6113 -8.7231 -2.0637 -3.80388e-006 1.04153e-005 -3.38228e-006 0.1927 -3.8059 -0.2383 0.0163488 0.00302799 -0.000873282 0.1091 -2.1688 -0.1362 9.54166e-015 -1.27222e-014 6.36111e-015 0.6151 -8.0947 -3.564 -3.80388e-006 1.04153e-005 -3.38228e-006 0.4882 -2.341 -0.6462 0.0146273 0.00368044 -0.00326003 0.3574 -1.7166 -0.4742 -5.71737e-006 1.08176e-005 -2.2503e-006 1.4199 -1.8761 1.4221 -3.80388e-006 1.04153e-005 -3.38228e-006 1.1472 -3.4929 2.6336 -4.16205e-006 -9.19953e-007 8.30425e-007 0.8229 -2.3 1.6571 -4.32278e-006 -6.72763e-007 2.39065e-006 -9.412 3.9771 -0.7758 -49.628 -9.47875 -76.2785 -0.7531 -40.938 0 -174.81 14.7508 124.97 -8.88178e-016 -40.1986 0 12.5815 12.9753 43.8936 1.77636e-015 -4.4182 9.239 5.88516e-007 3.47416e-006 -2.60232e-006 9.4119 3.9773 -0.7758 129.59 -58.0043 131.336 0.7532 -40.9383 3.55271e-015 170.445 59.6827 -157.986 -3.55271e-015 -40.1986 0 8.12849 -11.6353 2.19386 0 -4.4182 9.239 8.4246e-007 4.20958e-007 -2.63538e-008 
